<svg id="Layer_1" data-name="Layer 1" xmlns="http://www.w3.org/2000/svg" xmlns:xlink="http://www.w3.org/1999/xlink" viewBox="0 0 276.78 271.93"><defs><style>.cls-1{fill:url(#linear-gradient);}.cls-2{fill:url(#linear-gradient-2);}.cls-3{fill:url(#linear-gradient-3);}</style><linearGradient id="linear-gradient" x1="109.93" y1="202.09" x2="176.43" y2="27.59" gradientUnits="userSpaceOnUse"><stop offset="0" stop-color="#ff9148"/><stop offset="1" stop-color="#f6a28e"/></linearGradient><linearGradient id="linear-gradient-2" x1="89.53" y1="203.27" x2="156.03" y2="28.77" xlink:href="#linear-gradient"/><linearGradient id="linear-gradient-3" x1="129.61" y1="221.5" x2="199.58" y2="37.9" xlink:href="#linear-gradient"/></defs><title>bag-vector</title><polygon class="cls-1" points="138.91 160.82 14.5 129.74 19.83 108.4 138.91 138.14 257.98 108.4 263.32 129.74 138.91 160.82"/><path class="cls-2" d="M224.33,61.33h-29V42.21H103.81V61.33h-29V33.93A20.74,20.74,0,0,1,95.53,13.21H203.61a20.74,20.74,0,0,1,20.72,20.72Z" transform="translate(-11.18 -13.21)"/><path class="cls-3" d="M149.57,285.14c-35.45-.14-71.06-1.9-107.3-9.26C31.37,273.7,21,262.3,18.87,250.52,8.66,192.77,8.62,145.78,18.73,88.1c2.11-11.74,12.44-23.16,23.39-25.42C78.29,55.05,114.21,53,149.46,52.56h.22c35.25.41,71.17,2.49,107.42,10.14,10.87,2.24,21.2,13.66,23.31,25.4,10.11,57.68,10.07,104.66-.13,162.41-2.14,11.77-12.48,23.16-23.42,25.36C220.62,283.24,185,285,149.57,285.14ZM48.17,245.49a606.1,606.1,0,0,0,202.8,0A586.42,586.42,0,0,0,251.06,93c-33.89-6.41-67.95-8.93-101.49-9.24C116,84.06,81.94,86.59,48.08,93A586.41,586.41,0,0,0,48.17,245.49Zm-6.72-1.29h0ZM257.64,94.3l.08,0Zm-216.08,0-.08,0Z" transform="translate(-11.18 -13.21)"/></svg>