<svg id="Layer_1" data-name="Layer 1" xmlns="http://www.w3.org/2000/svg" xmlns:xlink="http://www.w3.org/1999/xlink" viewBox="0 0 283.74 223.15"><defs><style>.cls-1{stroke:#ff9148;stroke-miterlimit:10;stroke-width:29px;fill:url(#linear-gradient);}.cls-2{fill:url(#linear-gradient-2);}.cls-3{fill:url(#linear-gradient-3);}.cls-4{fill:url(#linear-gradient-4);}.cls-5{fill:url(#linear-gradient-5);}.cls-6{fill:url(#linear-gradient-6);}.cls-7{fill:url(#linear-gradient-7);}.cls-8{fill:url(#linear-gradient-8);}</style><linearGradient id="linear-gradient" x1="63.11" y1="198.86" x2="63.11" y2="198.86" gradientUnits="userSpaceOnUse"><stop offset="0" stop-color="#ff9148"/><stop offset="1" stop-color="#f6a28e"/></linearGradient><linearGradient id="linear-gradient-2" x1="150.82" y1="215.61" x2="204.32" y2="119.11" xlink:href="#linear-gradient"/><linearGradient id="linear-gradient-3" x1="119.02" y1="197.98" x2="172.52" y2="101.48" xlink:href="#linear-gradient"/><linearGradient id="linear-gradient-4" x1="109.36" y1="152.82" x2="162.86" y2="56.32" xlink:href="#linear-gradient"/><linearGradient id="linear-gradient-5" x1="143.9" y1="171.97" x2="197.4" y2="75.47" xlink:href="#linear-gradient"/><linearGradient id="linear-gradient-6" x1="72.25" y1="132.25" x2="125.75" y2="35.75" xlink:href="#linear-gradient"/><linearGradient id="linear-gradient-7" x1="118.6" y1="197.75" x2="172.1" y2="101.25" xlink:href="#linear-gradient"/><linearGradient id="linear-gradient-8" x1="74.64" y1="173.38" x2="128.14" y2="76.88" xlink:href="#linear-gradient"/></defs><title>chat-vector</title><path class="cls-1" d="M63.11,198.86" transform="translate(-9.13 -44.87)"/><path class="cls-2" d="M151,235.72c-2.49,0-5,0-7.52-.13l1-29c2.17.07,4.36.11,6.52.11Z" transform="translate(-9.13 -44.87)"/><path class="cls-3" d="M151,235.72v-29c61.18,0,112.87-30.42,112.87-66.43S212.18,73.87,151,73.87,38.13,104.29,38.13,140.29c0,17.78,12.29,31.21,22.61,39.34l-18,22.77c-21.7-17.11-33.65-39.17-33.65-62.11,0-26.75,15.64-51.42,44-69.46,26.35-16.74,61.1-26,97.84-26s71.49,9.22,97.84,26c28.39,18,44,42.71,44,69.46s-15.64,51.42-44,69.46C222.49,226.5,187.74,235.72,151,235.72Z" transform="translate(-9.13 -44.87)"/><circle class="cls-4" cx="140.87" cy="95.98" r="12"/><circle class="cls-5" cx="186.03" cy="95.98" r="12"/><circle class="cls-6" cx="92.36" cy="95.98" r="12"/><path class="cls-7" d="M49.35,268A14.5,14.5,0,0,1,40,242.4c1.74-1.46,43.33-35.76,104-35.76a14.5,14.5,0,0,1,0,29c-50.19,0-85,28.69-85.32,29A14.44,14.44,0,0,1,49.35,268Z" transform="translate(-9.13 -44.87)"/><path class="cls-8" d="M49.33,268a14.5,14.5,0,0,1-12.2-22.31c.32-.51,20-32.11,1.39-46.85a14.5,14.5,0,1,1,18-22.71c31.32,24.87,17,66.62,5,85.22A14.49,14.49,0,0,1,49.33,268Z" transform="translate(-9.13 -44.87)"/></svg>