<svg id="Layer_1" data-name="Layer 1" xmlns="http://www.w3.org/2000/svg" xmlns:xlink="http://www.w3.org/1999/xlink" viewBox="0 0 230.29 232.09"><defs><style>.cls-1{fill:url(#linear-gradient);}.cls-2{fill:url(#linear-gradient-2);}.cls-3{fill:url(#linear-gradient-3);}.cls-4{fill:url(#linear-gradient-4);}.cls-5{fill:url(#linear-gradient-5);}.cls-6{fill:url(#linear-gradient-6);}</style><linearGradient id="linear-gradient" x1="209.23" y1="241.1" x2="256.73" y2="84.6" gradientUnits="userSpaceOnUse"><stop offset="0" stop-color="#ff9148"/><stop offset="1" stop-color="#f6a28e"/></linearGradient><linearGradient id="linear-gradient-2" x1="89.54" y1="204.78" x2="137.04" y2="48.28" xlink:href="#linear-gradient"/><linearGradient id="linear-gradient-3" x1="78.88" y1="201.54" x2="126.38" y2="45.04" xlink:href="#linear-gradient"/><linearGradient id="linear-gradient-4" x1="198.19" y1="237.75" x2="245.69" y2="81.25" xlink:href="#linear-gradient"/><linearGradient id="linear-gradient-5" x1="127.23" y1="216.21" x2="174.73" y2="59.71" xlink:href="#linear-gradient"/><linearGradient id="linear-gradient-6" x1="144.73" y1="221.53" x2="192.23" y2="65.03" xlink:href="#linear-gradient"/></defs><title>music-vector</title><path class="cls-1" d="M243,217.58a11,11,0,0,1-11-11V53.08a11,11,0,0,1,22,0v153.5A11,11,0,0,1,243,217.58Z" transform="translate(-23.71 -33.89)"/><path class="cls-2" d="M105.63,239.51a11,11,0,0,1-11-11V75a11,11,0,1,1,22,0v153.5A11,11,0,0,1,105.63,239.51Z" transform="translate(-23.71 -33.89)"/><path class="cls-3" d="M70.17,266c-26.05,0-46.46-15.7-46.46-35.75s20.41-35.75,46.46-35.75,46.46,15.7,46.46,35.75S96.23,266,70.17,266Zm0-49.5c-14,0-24.46,7.26-24.46,13.75S56.17,244,70.17,244s24.46-7.26,24.46-13.75S84.17,216.47,70.17,216.47Z" transform="translate(-23.71 -33.89)"/><path class="cls-4" d="M207.54,242.68c-26.05,0-46.46-15.7-46.46-35.75s20.41-35.75,46.46-35.75S254,186.89,254,206.93,233.59,242.68,207.54,242.68Zm0-49.5c-14,0-24.46,7.26-24.46,13.75s10.46,13.75,24.46,13.75S232,213.42,232,206.93,221.54,193.18,207.54,193.18Z" transform="translate(-23.71 -33.89)"/><path class="cls-5" d="M105.66,83.53a11,11,0,0,1-6.72-19.71c2.36-1.81,58.78-44.14,146.42-25a11,11,0,1,1-4.7,21.49c-32.37-7.09-63.76-5.74-93.29,4-22.16,7.3-34.92,16.86-35.05,17A11,11,0,0,1,105.66,83.53Z" transform="translate(-23.71 -33.89)"/><path class="cls-6" d="M107.36,146.09a11,11,0,0,1-6.82-19.63c2.31-1.82,57.57-44.26,143.4-25a11,11,0,1,1-4.81,21.47c-31.53-7.06-62.1-5.73-90.86,4-21.6,7.28-34,16.82-34.16,16.91A11,11,0,0,1,107.36,146.09Z" transform="translate(-23.71 -33.89)"/></svg>