<svg id="Layer_1" data-name="Layer 1" xmlns="http://www.w3.org/2000/svg" viewBox="0 0 281.25 40"><title>oprawa</title><path d="M11.67,25.41a23.8,23.8,0,0,1-.28-3.58,29.16,29.16,0,0,1,.22-3.54q.22-1.8.64-3.74t1-4.18a1.51,1.51,0,0,1,.24-.82,2.1,2.1,0,0,1,.64-.64,4.13,4.13,0,0,1,.84-.42,2.47,2.47,0,0,1,.84-.16,2.55,2.55,0,0,1,1.6.56,6.68,6.68,0,0,1,1.3,1.36,10.38,10.38,0,0,1,1,1.7q.42.9.7,1.54a22.27,22.27,0,0,1,.46,3.18,25.26,25.26,0,0,1,0,3.62,20.69,20.69,0,0,1-.56,3.62,13.83,13.83,0,0,1-1.24,3.26A8,8,0,0,1,17,29.65a6,6,0,0,1-3,1.24,1.66,1.66,0,0,1-1.4-.62,4,4,0,0,1-.7-1.52,8.4,8.4,0,0,1-.24-1.82Q11.66,26,11.67,25.41Zm2-.12q0,.4,0,.76a5.87,5.87,0,0,0,.08.7q.06.34.16.72c.07.25.15.54.26.86h.24a2.31,2.31,0,0,0,1.64-.64A5.4,5.4,0,0,0,17.27,26a12.72,12.72,0,0,0,.8-2.28,24.81,24.81,0,0,0,.5-2.48q.18-1.22.24-2.28t.06-1.7v-.8q0-.52,0-1.18t-.14-1.36a7,7,0,0,0-.3-1.28,2.76,2.76,0,0,0-.52-.94,1.07,1.07,0,0,0-.84-.36,1.7,1.7,0,0,0-1.5.12,2.76,2.76,0,0,0-1,1.34,10.11,10.11,0,0,0-.58,2.3,24.78,24.78,0,0,0-.24,3q0,1.64,0,3.48T13.71,25.29Z" transform="translate(-11.38 -6.23)"/><path d="M22.76,41.43q.44-4.2.5-8t0-7.47q-.1-3.68-.3-7.45t-.24-8a2.89,2.89,0,0,1,.3-.86q.18-.3,1-.14a1.2,1.2,0,0,1,1,.94A5.6,5.6,0,0,1,25,12.16Q25,13.08,24.8,14a3.41,3.41,0,0,0,0,1.48q1.28-.92,2.72-1.92a24.39,24.39,0,0,1,3-1.78,14.28,14.28,0,0,1,3.24-1.16,7.73,7.73,0,0,1,3.36,0A5.41,5.41,0,0,1,40,12a2.58,2.58,0,0,1,.64,2.16,6.83,6.83,0,0,1-1.14,2.68,21.5,21.5,0,0,1-2.36,2.94A37,37,0,0,1,34,22.73q-1.72,1.44-3.36,2.66t-3.06,2.14q-1.42.92-2.26,1.36,0,.48-.1,1.5t-.12,2.3Q25.08,34,25,35.38t-.12,2.68q-.06,1.28-.12,2.28t-.06,1.48a1.37,1.37,0,0,1-.28.08L24,42l-.52,0a.72.72,0,0,1-.32,0c-.08,0-.16-.07-.24-.22A.79.79,0,0,1,22.76,41.43ZM25,19.48a5,5,0,0,0-.06,1.38q.06.82.16,1.72t.22,1.74q.12.84.16,1.44A37.14,37.14,0,0,1,29,23.41q2-1.2,3.92-2.6a20.41,20.41,0,0,0,3.38-3.12,8.81,8.81,0,0,0,2-3.88q.16-.84-.14-1.14a1.87,1.87,0,0,0-1-.42,7.4,7.4,0,0,0-3.48.22A16.37,16.37,0,0,0,29.86,14a13.67,13.67,0,0,0-3.18,2.48A6.23,6.23,0,0,0,25,19.48Z" transform="translate(-11.38 -6.23)"/><path d="M42.42,11.6v-.32a.58.58,0,0,1,.3-.56,1.47,1.47,0,0,1,.7-.16,2.87,2.87,0,0,1,.6.06.66.66,0,0,1,.44.46q.12.6.24,1.66T45,15.08l.34,2.7q.18,1.42.36,2.68t.38,2.26a7.12,7.12,0,0,0,.44,1.52,42.86,42.86,0,0,1,.24-6.67A12.43,12.43,0,0,1,48.12,13a5.5,5.5,0,0,1,2.8-2.48,8.72,8.72,0,0,1,4.46-.3q1.24,0,1.24,1.32,0,.52-.68.7a8.27,8.27,0,0,1-1.52.24l-1.64.14a2,2,0,0,0-1.16.4,4.34,4.34,0,0,0-2,2.48,18,18,0,0,0-.82,4q-.24,2.28-.34,5A47.86,47.86,0,0,1,47.9,30a.66.66,0,0,1-.32.6,1.44,1.44,0,0,1-.78.2,2,2,0,0,1-.88-.2,1.51,1.51,0,0,1-.66-.6Z" transform="translate(-11.38 -6.23)"/><path d="M70,29.85q-.2-1-.34-2.5t-.3-3q-.16-1.5-.38-2.82a7.28,7.28,0,0,0-.66-2.16A62.83,62.83,0,0,1,64.76,26,16.81,16.81,0,0,1,62,29.35a3.12,3.12,0,0,1-2,1,1.7,1.7,0,0,1-1.32-.72A4.23,4.23,0,0,1,58,27.87a17,17,0,0,1-.3-2,11,11,0,0,1,.4-2.48q.4-1.6,1.08-3.5A40.49,40.49,0,0,1,60.77,16a28,28,0,0,1,2-3.56A14.19,14.19,0,0,1,65,9.83a3.51,3.51,0,0,1,2.32-1,2.51,2.51,0,0,1,2.54.74q.82,1,.3,3.42a39.65,39.65,0,0,0,.22,4.52q.22,1.88.48,3.6t.48,3.6a39.74,39.74,0,0,1,.22,4.52,3,3,0,0,1-.1.82q-.1.34-1,.34c-.08,0-.18-.07-.3-.2A.56.56,0,0,1,70,29.85ZM67.88,12q-.44-.64-1.2-.12a6.78,6.78,0,0,0-1.6,1.72,26.46,26.46,0,0,0-1.72,2.88q-.88,1.68-1.64,3.4t-1.32,3.26a18.17,18.17,0,0,0-.76,2.54q0,1.44.44,1.62t1.08-.46A13.14,13.14,0,0,0,62.61,25q.82-1.2,1.6-2.56t1.48-2.64q.7-1.28,1.1-2.08a12.53,12.53,0,0,0,.56-1.56q.2-.72.34-1.38a7.56,7.56,0,0,0,.16-1.34Q67.88,12.72,67.88,12Z" transform="translate(-11.38 -6.23)"/><path d="M80.49,29.85q-.2-.6-.68-1.88l-1.08-2.88-1.28-3.4-1.28-3.4L75.09,15.4l-.72-1.92a4.29,4.29,0,0,1-.42-.82,2.51,2.51,0,0,1-.18-.92,1.66,1.66,0,0,1,.2-.82.83.83,0,0,1,1.42-.22,1.84,1.84,0,0,1,.5.7l4.6,11.81q0-.56.2-2t.32-3.1l.3-3.1q.14-1.46.22-2,0-.4.08-.92a4.87,4.87,0,0,1,.18-1,2.3,2.3,0,0,1,.44-.84,1.06,1.06,0,0,1,.86-.36,1.54,1.54,0,0,1,.58.08,1.2,1.2,0,0,1,.42.48l7.69,13.13V10a2,2,0,0,1,1.62.58A2.77,2.77,0,0,1,94,12a7.45,7.45,0,0,1,0,1.8,9.83,9.83,0,0,0-.08,1.72q0,.28,0,1.2t.1,2.12q.06,1.2.1,2.58t.1,2.58q.06,1.2.1,2.12t0,1.2q.28.8,0,1.06a1,1,0,0,1-.82.18,2.49,2.49,0,0,1-1-.44,1.72,1.72,0,0,1-.68-.8L83.62,13.48q-.28,6-.56,10.09t-.52,6.81q-.12.44-.4.48a1,1,0,0,1-.58-.1,2,2,0,0,1-.58-.42Z" transform="translate(-11.38 -6.23)"/><path d="M110.16,35.54a1.14,1.14,0,0,1,.56,1.32,2.58,2.58,0,0,1-1.16,1.3,7.46,7.46,0,0,1-2.34.9,7,7,0,0,1-3,0,3.72,3.72,0,0,1-2.32-1.72,5.34,5.34,0,0,1-.76-3,7,7,0,0,1,1-3.28l0-.16a3.53,3.53,0,0,1-2.32-.88,4.83,4.83,0,0,1-1.3-2.2,10.66,10.66,0,0,1-.4-2.82q0-1.5-.06-2.78l-.6.12a2.92,2.92,0,0,1-.84,0,1.81,1.81,0,0,1-.78-.24.72.72,0,0,1-.34-.68.55.55,0,0,1,.12-.4l.4-.36a6.18,6.18,0,0,0,1.5-1.86,23,23,0,0,0,1.14-2.44q.52-1.3,1.1-2.6a12.77,12.77,0,0,1,1.34-2.34A6,6,0,0,1,103,9.79a5.23,5.23,0,0,1,2.76-.6,4.33,4.33,0,0,1,1.52.32,6.38,6.38,0,0,1,1.56.86,4.86,4.86,0,0,1,1.2,1.3,3.09,3.09,0,0,1,.48,1.68q.2.32-.38.92a11,11,0,0,1-1.58,1.3q-1,.7-2.26,1.44t-2.42,1.38l-2,1.12a7.83,7.83,0,0,0-1.16.72,4.12,4.12,0,0,0-.32.92q-.12.52-.18,1c0,.31-.07.59-.08.84s0,.45,0,.58q0,.76-.06,1.68a7.43,7.43,0,0,0,.08,1.74,2.52,2.52,0,0,0,.66,1.36,2.38,2.38,0,0,0,1.76.54,4.94,4.94,0,0,0,2.48-.66,10.91,10.91,0,0,0,2.16-1.62A16,16,0,0,0,109,24.53q.82-1.12,1.48-2.1t1.18-1.62c.35-.43.64-.64.88-.64a3,3,0,0,1,.86.14.62.62,0,0,1,.46.66,3.6,3.6,0,0,1-.58,1.72,15.25,15.25,0,0,1-1.52,2.12A22.38,22.38,0,0,1,109.58,27,22.72,22.72,0,0,1,107.12,29q-.44.32-.92.64a1.47,1.47,0,0,1-.32.6,1.06,1.06,0,0,1-.84.44,9.16,9.16,0,0,0-1.3,2.1,5.22,5.22,0,0,0-.48,1.94,2.42,2.42,0,0,0,.42,1.5,1.87,1.87,0,0,0,1.36.74,3.87,3.87,0,0,0,1.3-.22q.62-.22,1.26-.48t1.26-.48A3.87,3.87,0,0,1,110.16,35.54Zm-4.72-24.1a2.26,2.26,0,0,0-1.44.66,8.82,8.82,0,0,0-1.42,1.6,10.65,10.65,0,0,0-1.08,1.92,4.33,4.33,0,0,0-.42,1.62,5.16,5.16,0,0,0,1.74-.46,15.57,15.57,0,0,0,2.26-1.14,12.86,12.86,0,0,0,2-1.44,2.07,2.07,0,0,0,.84-1.44.76.76,0,0,0-.28-.6,2.5,2.5,0,0,0-.66-.4,4.12,4.12,0,0,0-.78-.24A3.73,3.73,0,0,0,105.44,11.44Z" transform="translate(-11.38 -6.23)"/><path d="M135.91,30.78q-.12-1.12-.2-3t-.16-4.18q-.08-2.26-.18-4.7t-.22-4.64q-.12-2.2-.3-4t-.38-2.88q0-.8.36-.94a2.57,2.57,0,0,1,.92-.14h.36a1.42,1.42,0,0,1,.4,0,13.57,13.57,0,0,1,.46,3.1q.1,1.9.16,4.14t.12,4.64q.06,2.4.26,4.56.56-3.16.94-5.24t.72-3.34a11.44,11.44,0,0,1,.64-1.88,1.74,1.74,0,0,1,.68-.82,1.62,1.62,0,0,1,.84-.18l1.1,0a1.46,1.46,0,0,1,1.18.56,4.07,4.07,0,0,1,.72,1.44,12.9,12.9,0,0,1,.4,1.92q.14,1,.26,2t.26,1.78a2.09,2.09,0,0,0,.46,1.12q1-3,1.72-4.84t1.24-3a7.83,7.83,0,0,1,.92-1.58,1.72,1.72,0,0,1,.72-.58,1,1,0,0,1,.58,0,1.81,1.81,0,0,0,.54.08,1.77,1.77,0,0,1,1.64,1.12,18.26,18.26,0,0,1,.88,3.42,26.2,26.2,0,0,1,.28,3.12q0,1.5,0,2.86t.08,2.64a13.42,13.42,0,0,0,.44,2.52A7.88,7.88,0,0,0,156,28.33a2.27,2.27,0,0,1-.64.86,1.54,1.54,0,0,1-.88.22,1.18,1.18,0,0,1-.84-.34,2.81,2.81,0,0,1-.6-.84,5.84,5.84,0,0,1-.38-1c-.09-.35-.18-.65-.26-.92q-.16-5.73-.5-8.79t-1-3.22q-.68-.16-1.74,2.66t-2.62,8.83a.49.49,0,0,1-.36.24,3,3,0,0,1-.5,0l-.52,0a2.07,2.07,0,0,0-.5,0q-1-5.89-1.66-8.47t-1.34-2q-.68.6-1.52,4.3t-2.16,10.39Z" transform="translate(-11.38 -6.23)"/><path d="M168.22,26.25a5.12,5.12,0,0,1-.78,1.3A14.63,14.63,0,0,1,166,29.19a13.29,13.29,0,0,1-1.74,1.44,2.92,2.92,0,0,1-1.58.62,2.46,2.46,0,0,1-2.1-1.2A9.11,9.11,0,0,1,159.29,27a26.39,26.39,0,0,1-.6-4.18q-.16-2.3-.2-4.5t0-4a22.8,22.8,0,0,0-.12-2.72.73.73,0,0,1,.42-.48,2.12,2.12,0,0,1,.62-.08,2,2,0,0,1,.58.08.86.86,0,0,1,.46.48c0,.29,0,.79,0,1.48s0,1.48.1,2.34.11,1.78.16,2.72.1,1.85.14,2.7.08,1.62.12,2.3.07,1.18.1,1.5.06.49.1.92a12.68,12.68,0,0,0,.2,1.34,7.44,7.44,0,0,0,.36,1.26c.15.37.34.57.58.6a1.92,1.92,0,0,0,1.22-.52,7.87,7.87,0,0,0,1.22-1.32,14.24,14.24,0,0,0,1.12-1.76q.52-1,.94-1.86a12.43,12.43,0,0,0,.64-1.62,7.29,7.29,0,0,0,.26-1q.08-.68.16-1.94T168,16q0-1.44.06-2.72t0-2l2.2.12q0,3.24,0,5.87t0,4.92a34.41,34.41,0,0,0,.36,4.46,23.1,23.1,0,0,0,1.16,4.48,2.93,2.93,0,0,1-.48.34,1.23,1.23,0,0,1-.52.22,1.36,1.36,0,0,1-1.34-.66,4.44,4.44,0,0,1-.44-1.56q-.1-.9-.16-1.8A2.25,2.25,0,0,0,168.22,26.25Z" transform="translate(-11.38 -6.23)"/><path d="M179.39,31.29a5.58,5.58,0,0,1,.14-2.38,26,26,0,0,1,1-3.18q.64-1.72,1.5-3.56t1.68-3.5q.82-1.66,1.46-3a16.79,16.79,0,0,0,.88-2.16.32.32,0,0,1,0-.1.43.43,0,0,0,0-.14.65.65,0,0,0,0-.16.52.52,0,0,1,0-.12l-2.46,1q-1.34.54-2.7,1t-2.66.92q-1.3.42-2.38.66-.16.12-.56-.08a3.16,3.16,0,0,1-.76-.54,1.9,1.9,0,0,1-.5-.72.59.59,0,0,1,.26-.7,11.11,11.11,0,0,0,3.12-.54q1.8-.54,3.66-1.26l3.64-1.42a19.57,19.57,0,0,1,3.14-1,1.17,1.17,0,0,1,1.32,1.32,8.24,8.24,0,0,1-.5,2.82,18.31,18.31,0,0,1-1.24,2.7q-.74,1.32-1.6,2.6t-1.6,2.6A20.32,20.32,0,0,0,183,25a7.77,7.77,0,0,0-.52,2.8v.48l14.65-3h.28a1.68,1.68,0,0,1,1,.34,2.28,2.28,0,0,1,.68.76.94.94,0,0,1,0,.86,1.37,1.37,0,0,1-1,.64,1.54,1.54,0,0,0-.34,0l-.76.14-1.7.28-3.14.54-5.12.94Z" transform="translate(-11.38 -6.23)"/><path d="M209.58,30.73,199.25,14.2a.74.74,0,0,1-.08-.3,2.8,2.8,0,0,1,0-.42,2.1,2.1,0,0,1,.18-.9c.12-.25.43-.38.94-.38a1.69,1.69,0,0,1,.56.18,1,1,0,0,1,.48.34q.88,1.4,1.82,3.12t2,3.44q1,1.72,2.14,3.3a16.28,16.28,0,0,0,2.36,2.7l1-15.69.22,0,.26,0a2.7,2.7,0,0,1,.72.1.79.79,0,0,1,.52.54q0,1.44,0,3.56t-.08,4.36q-.06,2.24-.12,4.3t-.1,3.3q0,.8-.14,2.4t-.24,3.62q-.14,2-.32,4.26t-.34,4.24q-.16,2-.28,3.62t-.2,2.34h-2.08Z" transform="translate(-11.38 -6.23)"/><path d="M214.18,21.69q.12-1.44.24-3.14t.38-3.38a28.33,28.33,0,0,1,.68-3.2,11.09,11.09,0,0,1,1.12-2.7,5.77,5.77,0,0,1,1.74-1.88,4.2,4.2,0,0,1,2.52-.66,1.73,1.73,0,0,1,1.54.84,5.62,5.62,0,0,1,.76,2,15,15,0,0,1,.24,2.46q0,1.26,0,2.06a1.58,1.58,0,0,1-1.32-.7,5.23,5.23,0,0,1-.8-1.62,11.47,11.47,0,0,1-.4-1.8l-.12-1.16-.14,0-.14,0a1.62,1.62,0,0,0-1.26.76,9,9,0,0,0-1.08,1.94,17.41,17.41,0,0,0-.86,2.64q-.36,1.46-.6,2.86t-.38,2.58a16.31,16.31,0,0,0-.14,1.82,16.14,16.14,0,0,0,0,2.28,8.12,8.12,0,0,0,.48,2.32,5.55,5.55,0,0,0,1.12,1.86,3.68,3.68,0,0,0,1.92,1.06,6.1,6.1,0,0,0,2.4-.4,4.07,4.07,0,0,0,1.5-1.08,5.18,5.18,0,0,0,.9-1.52q.32-.84.62-1.74t.62-1.78a5.87,5.87,0,0,1,.92-1.64.92.92,0,0,1,.7,0,.71.71,0,0,1,.3.38,1.79,1.79,0,0,1,.08.56v.44a9.55,9.55,0,0,1-.56,3.24,8.48,8.48,0,0,1-1.64,2.78,8.35,8.35,0,0,1-2.58,2,7.64,7.64,0,0,1-3.42.74,3.68,3.68,0,0,1-2.66-1,7,7,0,0,1-1.64-2.46,13.5,13.5,0,0,1-.82-3A18.42,18.42,0,0,1,214.18,21.69Z" transform="translate(-11.38 -6.23)"/><path d="M235.64,31.29a5.58,5.58,0,0,1,.14-2.38,26,26,0,0,1,1-3.18q.64-1.72,1.5-3.56t1.68-3.5q.82-1.66,1.46-3a16.79,16.79,0,0,0,.88-2.16.32.32,0,0,1,0-.1.43.43,0,0,0,0-.14.65.65,0,0,0,0-.16.52.52,0,0,1,0-.12l-2.46,1q-1.34.54-2.7,1t-2.66.92q-1.3.42-2.38.66-.16.12-.56-.08a3.16,3.16,0,0,1-.76-.54,1.9,1.9,0,0,1-.5-.72.59.59,0,0,1,.26-.7,11.11,11.11,0,0,0,3.12-.54q1.8-.54,3.66-1.26l3.64-1.42a19.57,19.57,0,0,1,3.14-1,1.17,1.17,0,0,1,1.32,1.32,8.24,8.24,0,0,1-.5,2.82,18.31,18.31,0,0,1-1.24,2.7q-.74,1.32-1.6,2.6t-1.6,2.6A20.32,20.32,0,0,0,239.21,25a7.77,7.77,0,0,0-.52,2.8v.48l14.65-3h.28a1.68,1.68,0,0,1,1,.34,2.28,2.28,0,0,1,.68.76.94.94,0,0,1,0,.86,1.37,1.37,0,0,1-1,.64,1.54,1.54,0,0,0-.34,0l-.76.14-1.7.28-3.14.54-5.12.94Z" transform="translate(-11.38 -6.23)"/><path d="M257.22,30.38q-.44-5.41-.78-10.83T255.7,8.27q0-1,1-1h.32c.08,0,.17.11.28.32a5.63,5.63,0,0,1,.34,1.18q.18.86.4,2.6t.54,4.54q.32,2.8.72,7a47.72,47.72,0,0,0,1.32-5.28A29.87,29.87,0,0,1,261.91,13a11.73,11.73,0,0,1,2.14-3.7A8.11,8.11,0,0,1,268,7a3.29,3.29,0,0,1,2.32,1.74,13.45,13.45,0,0,1,1.4,3.7,31.45,31.45,0,0,1,.72,4.78q.2,2.58.24,4.95t0,4.22q0,1.86.08,2.66a1.56,1.56,0,0,1-.36.56,1.37,1.37,0,0,1-.54.34,1.09,1.09,0,0,1-.58,0,.89.89,0,0,1-.52-.42q0-.44-.08-1.8t-.2-3.18q-.12-1.82-.26-3.88t-.24-3.88q-.1-1.82-.18-3.18t-.12-1.8q-.84-1.48-1.66-1.68a1.79,1.79,0,0,0-1.64.52,7.44,7.44,0,0,0-1.58,2.2,29.32,29.32,0,0,0-1.44,3.34q-.68,1.86-1.28,3.9t-1,3.94q-.44,1.9-.74,3.44T260,29.85a1.33,1.33,0,0,1-.5.54,2.74,2.74,0,0,1-.8.38,2,2,0,0,1-.84.06A.79.79,0,0,1,257.22,30.38Z" transform="translate(-11.38 -6.23)"/><path d="M292,35.74a1.08,1.08,0,0,1,.56,1.28,2.67,2.67,0,0,1-1.16,1.32,6.88,6.88,0,0,1-2.34.9,7.94,7.94,0,0,1-3,0,3.87,3.87,0,0,1-2.28-1.76,5.34,5.34,0,0,1-.76-3,7.26,7.26,0,0,1,.92-3.28,6.85,6.85,0,0,1,2.6-2.56q-.08-.6-.16-1.32-.12-1.48-.28-3t-.38-2.82a7.28,7.28,0,0,0-.66-2.16,62.83,62.83,0,0,1-3.6,6.55,16.84,16.84,0,0,1-2.74,3.4,3.12,3.12,0,0,1-2,1,1.7,1.7,0,0,1-1.32-.72,4.23,4.23,0,0,1-.74-1.74,17,17,0,0,1-.3-2,11,11,0,0,1,.4-2.48q.4-1.6,1.08-3.5A40.48,40.48,0,0,1,277.46,16a28,28,0,0,1,2-3.56,14.19,14.19,0,0,1,2.24-2.64,3.5,3.5,0,0,1,2.32-1,2.51,2.51,0,0,1,2.54.74q.82,1,.3,3.42a39.53,39.53,0,0,0,.22,4.52q.22,1.88.48,3.6t.48,3.6a40,40,0,0,1,.22,4.52,2.67,2.67,0,0,1-.12.84c0,.16-.16.27-.4.32h0a1.1,1.1,0,0,1-.88.44,8.61,8.61,0,0,0-1.28,2.1,5.45,5.45,0,0,0-.46,2,2.37,2.37,0,0,0,.42,1.5,2,2,0,0,0,1.36.76,3.93,3.93,0,0,0,1.28-.22q.64-.22,1.26-.5a11.14,11.14,0,0,1,1.26-.48A4.42,4.42,0,0,1,292,35.74ZM284.57,12q-.44-.64-1.2-.12a6.78,6.78,0,0,0-1.6,1.72A26.46,26.46,0,0,0,280,16.44q-.88,1.68-1.64,3.4t-1.32,3.26a18.11,18.11,0,0,0-.76,2.54q0,1.44.44,1.62t1.08-.46A13.1,13.1,0,0,0,279.31,25q.82-1.2,1.6-2.56t1.48-2.64q.7-1.28,1.1-2.08a12.53,12.53,0,0,0,.56-1.56q.2-.72.34-1.38a7.7,7.7,0,0,0,.16-1.34Q284.57,12.72,284.57,12Z" transform="translate(-11.38 -6.23)"/></svg>