<svg id="Layer_1" data-name="Layer 1" xmlns="http://www.w3.org/2000/svg" xmlns:xlink="http://www.w3.org/1999/xlink" viewBox="0 0 292.06 179.05"><defs><style>.cls-1{fill:url(#linear-gradient);}.cls-2{fill:url(#linear-gradient-2);}.cls-3{fill:url(#linear-gradient-3);}</style><linearGradient id="linear-gradient" x1="137.22" y1="217.31" x2="153.22" y2="95.31" gradientUnits="userSpaceOnUse"><stop offset="0.01" stop-color="#ff9148"/><stop offset="1" stop-color="#f6a28e"/></linearGradient><linearGradient id="linear-gradient-2" x1="64.01" y1="207.71" x2="80.01" y2="85.71" xlink:href="#linear-gradient"/><linearGradient id="linear-gradient-3" x1="232.31" y1="229.78" x2="248.31" y2="107.78" xlink:href="#linear-gradient"/></defs><title>leaf-vector</title><path class="cls-1" d="M150.32,231.81c-6.48,0-11.88-3.64-16-10.82-1.67-2.87-3.37-6.51-5.52-11.11-1-2-2-4.3-3.19-6.74l-.13-.28c-1.12-2.47-2.36-5.12-3.67-7.93-5.53-11.85-12.42-26.61-17.85-42.85-8.17-24.45-8.59-44.68-1.23-60.12,8.15-17.78,26.38-28.82,47.63-28.82s39.48,11,47.63,28.82c7.36,15.44,6.94,35.66-1.23,60.12-5.43,16.25-12.32,31-17.85,42.85-1.32,2.82-2.55,5.47-3.67,7.93l-.13.28c-1.17,2.43-2.22,4.69-3.18,6.74-2.16,4.6-3.86,8.24-5.52,11.12C162.2,228.16,156.8,231.81,150.32,231.81Zm0-139.68c-9.78,0-17.94,4.58-21.29,12l-.13.28c-3.93,8.18-3,21.86,2.53,38.51,4.9,14.67,11.4,28.59,16.62,39.78l2.27,4.88q1.09-2.35,2.27-4.88c5.22-11.18,11.72-25.1,16.62-39.78,5.56-16.65,6.46-30.32,2.53-38.51l-.13-.28C168.26,96.71,160.1,92.13,150.32,92.13Z" transform="translate(-3.97 -63.13)"/><path class="cls-2" d="M109.33,242.17c-4.35,0-9.16-1.16-14.29-2.39-1.71-.41-3.59-.86-5.64-1.33l-.3-.07c-2-.52-4.25-1.05-6.6-1.62-10-2.42-22.46-5.44-35.19-10.11-19.69-7.23-32.83-17.36-39-30.13C.85,181.76,3.14,164,14.28,150s28-20.11,44-16.12c13.82,3.24,26.61,13.81,38,31.43,7.36,11.38,13,22.86,17.62,32.09,1.07,2.17,2.08,4.21,3,6.09l.14.28c.91,1.89,1.77,3.63,2.54,5.2,5,10.07,9.27,18.77,2.51,27.23h0C118.57,240.7,114.24,242.17,109.33,242.17ZM48.68,161.72c-4.16,0-8.47,2.3-11.75,6.4-4,5-5,10.88-2.74,15.4l.14.28c2.68,5.56,11,11.25,23,15.63A273.3,273.3,0,0,0,86.79,208,273.29,273.29,0,0,0,72,181.07c-6.89-10.66-14.29-17.56-20.31-18.95l-.3-.07A10.89,10.89,0,0,0,48.68,161.72Z" transform="translate(-3.97 -63.13)"/><path class="cls-3" d="M192,241.56A15.09,15.09,0,0,1,179.81,236h0c-7-8.23-3-17.07,1.6-27.3.73-1.6,1.52-3.36,2.37-5.29l.13-.28c.89-1.91,1.83-4,2.83-6.17,4.26-9.38,9.57-21,16.55-32.68,10.8-18,23.23-29,36.93-32.67,15.89-4.52,32.94,1.08,44.54,14.64s14.48,31.28,7.55,46.27c-5.78,13-18.57,23.54-38,31.42-12.56,5.09-24.91,8.52-34.83,11.27-2.33.65-4.52,1.26-6.55,1.84l-.3.08c-2,.54-3.89,1.05-5.59,1.52C201.64,240.17,196.61,241.56,192,241.56Zm59.09-82.44a10.92,10.92,0,0,0-3,.42l-.3.08c-6,1.58-13.13,8.73-19.66,19.61a273.1,273.1,0,0,0-13.92,27.36,273,273,0,0,0,29.19-9.51c11.76-4.77,19.94-10.74,22.43-16.38l.13-.28c2.14-4.59.9-10.45-3.25-15.3C259.41,161.26,255.18,159.11,251.14,159.11Z" transform="translate(-3.97 -63.13)"/></svg>