<svg id="Layer_1" data-name="Layer 1" xmlns="http://www.w3.org/2000/svg" xmlns:xlink="http://www.w3.org/1999/xlink" viewBox="0 0 265.5 287"><defs><style>.cls-1{fill:url(#linear-gradient);}.cls-2{fill:url(#linear-gradient-2);}.cls-3{fill:url(#linear-gradient-3);}</style><linearGradient id="linear-gradient" x1="152.74" y1="225.41" x2="203.74" y2="129.91" gradientUnits="userSpaceOnUse"><stop offset="0" stop-color="#ff9148"/><stop offset="1" stop-color="#f6a28e"/></linearGradient><linearGradient id="linear-gradient-2" x1="157.3" y1="227.84" x2="208.3" y2="132.34" xlink:href="#linear-gradient"/><linearGradient id="linear-gradient-3" x1="87.32" y1="190.47" x2="138.32" y2="94.97" xlink:href="#linear-gradient"/></defs><title>silh-vector</title><path class="cls-1" d="M282.75,237.62h-29c0-17.56-17.19-30.19-27.43-36.16-20.15-11.74-47.26-18.2-76.32-18.2s-56.17,6.46-76.32,18.2c-10.24,6-27.43,18.6-27.43,36.16h-29c0-46.74,58.31-83.36,132.75-83.36S282.75,190.88,282.75,237.62Z" transform="translate(-17.25 -7.5)"/><path class="cls-2" d="M150,294.5c-33.21,0-64.64-4.71-88.51-13.26-36.57-13.1-44.24-31-44.24-43.62h29c0,1.46,4.45,8.94,25,16.32C92.08,261.39,120,265.5,150,265.5s57.92-4.11,78.72-11.56c20.57-7.37,25-14.86,25-16.32h29c0,12.66-7.68,30.51-44.24,43.62C214.64,289.79,183.21,294.5,150,294.5Z" transform="translate(-17.25 -7.5)"/><path class="cls-3" d="M147.75,147.12c-34.29,0-62.19-31.32-62.19-69.81S113.46,7.5,147.75,7.5s62.19,31.32,62.19,69.81S182,147.12,147.75,147.12Zm0-110.62c-18.3,0-33.19,18.31-33.19,40.81s14.89,40.81,33.19,40.81,33.19-18.31,33.19-40.81S166.06,36.5,147.75,36.5Z" transform="translate(-17.25 -7.5)"/></svg>