<?xml version="1.0" encoding="utf-8"?>
<!-- Generator: Adobe Illustrator 21.0.0, SVG Export Plug-In . SVG Version: 6.00 Build 0)  -->
<svg version="1.1" id="Layer_2" xmlns="http://www.w3.org/2000/svg" xmlns:xlink="http://www.w3.org/1999/xlink" x="0px" y="0px"
	 viewBox="0 0 294.5 34" style="enable-background:new 0 0 294.5 34;" xml:space="preserve">
<style type="text/css">
	.st0{fill:#FFFFFF;}
</style>
<title>subtxt-path</title>
<path class="st0" d="M292.7,0.1c-39.1,10.6-79.4,15.7-119.9,15.3c-39.4-0.5-79-9.2-118.4-4c-19.2,2.6-37.9,8.6-53.8,19.8
	c-1.6,1.1-0.1,3.7,1.5,2.6c31.5-22.3,71.3-22.5,108.3-19.6c19.8,1.6,39.6,3.8,59.5,4.1c19.6,0.4,39.3-0.6,58.8-2.9
	c21.9-2.6,43.5-6.7,64.7-12.5c0.8-0.2,1.2-1.1,1-1.9C294.2,0.3,293.5-0.1,292.7,0.1z"/>
</svg>
